<?xml version="1.0" encoding="utf-8"?>
<svg viewBox="3.654 2.709 58.553 58.696" xmlns="http://www.w3.org/2000/svg">
  <path d="M 4.212 61.3 C 4.356 61.37 4.506 61.405 4.651 61.405 C 5.02 61.405 5.374 61.2 5.549 60.846 C 5.794 60.352 5.589 59.753 5.095 59.508 C 4.601 59.264 4.002 59.468 3.757 59.963 C 3.513 60.457 3.717 61.056 4.212 61.3 Z" style="fill: rgb(255, 255, 255);"/>
  <path d="M 8.216 61.3 C 8.36 61.37 8.51 61.405 8.655 61.405 C 9.024 61.405 9.378 61.2 9.553 60.846 C 9.798 60.352 9.593 59.753 9.099 59.508 C 8.605 59.264 8.006 59.468 7.761 59.963 C 7.517 60.457 7.721 61.056 8.216 61.3 Z" style="fill: rgb(255, 255, 255);"/>
  <path d="M 12.216 61.3 C 12.36 61.37 12.51 61.405 12.655 61.405 C 13.024 61.405 13.378 61.2 13.553 60.846 C 13.798 60.352 13.593 59.753 13.099 59.508 C 12.605 59.264 12.006 59.468 11.761 59.963 C 11.517 60.457 11.721 61.056 12.216 61.3 Z" style="fill: rgb(255, 255, 255);"/>
  <path d="M39.419,59.304c-10.048-0.85-21.536-4.617-30.731-10.08l-2.727-1.619c0.406-0.95,0.641-1.943,0.87-2.91  c0.068-0.29,0.137-0.579,0.209-0.865c0.211-0.827,0.445-2.175,0.716-3.734c0.39-2.245,0.875-5.039,1.313-6.162l5.99-15.352  c0.131-0.335,0.25-0.696,0.372-1.065c0.324-0.986,0.66-2.007,1.288-2.559c0.354-0.312,0.815-0.544,1.26-0.749  c0.052-0.023,0.101-0.051,0.146-0.083l11.853-9.077c0.594-0.457,1.418-0.451,2.004,0.02l5.944,4.755  c0.376,0.301,0.598,0.75,0.608,1.232s-0.191,0.94-0.554,1.258l-3.792,3.317c-0.644,0.563-1.616,0.528-2.219-0.073  c-0.346-0.346-0.516-0.822-0.468-1.309c0.049-0.486,0.31-0.921,0.717-1.192l0.336-0.225l-1.111-1.662l-0.335,0.224  c-0.907,0.604-1.489,1.573-1.597,2.658s0.273,2.149,1.044,2.92c1.345,1.346,3.52,1.418,4.949,0.165l3.189-2.79l0.981,1.472  l-5.991,5.136l-7.157-0.895c0.109-0.512,0.234-1.021,0.38-1.525l-1.92-0.557c-0.671,2.309-0.981,4.698-0.926,7.103  c0.03,1.291,0.168,2.577,0.302,3.821c0.156,1.462,0.304,2.843,0.295,4.242c-0.027,4.189-1.65,8.1-4.341,10.459l1.318,1.504  c1.905-1.67,3.316-3.923,4.152-6.5c0.302-0.101,0.686-0.094,1.063-0.062c1.313,0.117,2.588,0.477,3.785,1.016  c-0.488,0.784-0.886,1.621-1.182,2.503l1.896,0.637c0.258-0.769,0.612-1.497,1.047-2.178c0.024,0.016,0.05,0.028,0.073,0.044  l0.959-1.399c1.884-2.11,4.66-3.581,7.889-4.064c4.835-0.725,9.33,0.933,11.751,4.317l1.627-1.164  c-1.004-1.403-2.306-2.55-3.808-3.42c2.897-2.411,7.09-3.279,10.665-2.037l0.656-1.889c-4.508-1.57-9.844-0.3-13.271,2.994  c-2.38-0.907-5.106-1.201-7.915-0.779c-3.739,0.558-6.961,2.292-9.154,4.787c-1.514-0.741-3.157-1.208-4.843-1.359  c-0.221-0.02-0.458-0.029-0.7-0.027c0.208-1.087,0.325-2.213,0.332-3.369c0.01-1.514-0.151-3.016-0.307-4.469  c-0.129-1.203-0.262-2.447-0.29-3.655c-0.024-1.004,0.032-2.005,0.148-2.998l7.666,0.958C33.917,22.997,33.959,23,34,23  c0.237,0,0.469-0.085,0.65-0.241l7-6c0.385-0.329,0.462-0.893,0.182-1.313l-1.754-2.632c0.299-0.548,0.471-1.161,0.457-1.803  c-0.023-1.076-0.52-2.079-1.359-2.751l-5.943-4.755c-1.308-1.046-3.148-1.062-4.474-0.042l-11.323,8.712l-0.37,0.253  c-0.535,0.249-1.143,0.567-1.666,1.027c-1.036,0.911-1.479,2.252-1.868,3.436c-0.109,0.333-0.217,0.66-0.335,0.964l-5.99,15.352  c-0.511,1.31-0.974,3.973-1.421,6.547c-0.253,1.455-0.491,2.83-0.683,3.583c-0.076,0.297-0.147,0.597-0.218,0.897  c-0.28,1.186-0.545,2.305-1.097,3.257c-0.274,0.474-0.116,1.081,0.354,1.36l3.523,2.093c9.443,5.609,21.25,9.479,31.585,10.353  c0.801,0.068,1.81,0.108,2.962,0.108c5.749,0,15.023-1.006,19.423-4.633l-1.271-1.543C55.82,58.975,44.479,59.73,39.419,59.304z" style="fill: rgb(255, 255, 255);"/>
  <g style="" transform="matrix(0.883978, 0, 0, 0.886427, -4.810647, -5.505607)">
    <path d="M 61.767 27.286 C 61.867 27.386 62.067 27.486 62.267 27.486 C 62.467 27.486 62.667 27.386 62.767 27.286 C 63.067 26.986 63.067 26.486 62.767 26.286 L 60.967 24.486 C 60.667 24.186 60.167 24.186 59.967 24.486 C 59.667 24.786 59.667 25.286 59.967 25.486 L 61.767 27.286 Z" style="stroke-width: 0.564843px; fill: rgb(255, 255, 255); stroke: rgb(255, 255, 255);"/>
    <path d="M 67.467 33.086 C 67.567 33.186 67.767 33.286 67.967 33.286 C 68.167 33.286 68.367 33.186 68.467 33.086 C 68.767 32.786 68.767 32.286 68.467 32.086 L 66.667 30.286 C 66.367 29.986 65.867 29.986 65.667 30.286 C 65.467 30.586 65.367 31.086 65.667 31.286 L 67.467 33.086 Z" style="stroke-width: 0.564843px; fill: rgb(255, 255, 255); stroke: rgb(255, 255, 255);"/>
    <path d="M 60.467 33.286 C 60.667 33.286 60.867 33.186 60.967 33.086 L 62.767 31.286 C 63.067 30.986 63.067 30.486 62.767 30.286 C 62.467 29.986 61.967 29.986 61.767 30.286 L 59.967 31.986 C 59.667 32.286 59.667 32.786 59.967 32.986 C 60.067 33.186 60.267 33.286 60.467 33.286 Z" style="stroke-width: 0.564843px; fill: rgb(255, 255, 255); stroke: rgb(255, 255, 255);"/>
    <path d="M 66.267 27.486 C 66.467 27.486 66.667 27.386 66.767 27.286 L 68.567 25.486 C 68.867 25.186 68.867 24.686 68.567 24.486 C 68.267 24.286 67.767 24.186 67.567 24.486 L 65.767 26.286 C 65.467 26.586 65.467 27.086 65.767 27.286 C 65.867 27.386 66.067 27.486 66.267 27.486 Z" style="stroke-width: 0.564843px; fill: rgb(255, 255, 255); stroke: rgb(255, 255, 255);"/>
  </g>
  <g style="" transform="matrix(0.883978, 0, 0, 0.886427, 0.396386, -16.505608)">
    <path d="M 61.767 27.286 C 61.867 27.386 62.067 27.486 62.267 27.486 C 62.467 27.486 62.667 27.386 62.767 27.286 C 63.067 26.986 63.067 26.486 62.767 26.286 L 60.967 24.486 C 60.667 24.186 60.167 24.186 59.967 24.486 C 59.667 24.786 59.667 25.286 59.967 25.486 L 61.767 27.286 Z" style="stroke-width: 0.564843px; fill: rgb(255, 255, 255); stroke: rgb(255, 255, 255);"/>
    <path d="M 67.467 33.086 C 67.567 33.186 67.767 33.286 67.967 33.286 C 68.167 33.286 68.367 33.186 68.467 33.086 C 68.767 32.786 68.767 32.286 68.467 32.086 L 66.667 30.286 C 66.367 29.986 65.867 29.986 65.667 30.286 C 65.467 30.586 65.367 31.086 65.667 31.286 L 67.467 33.086 Z" style="stroke-width: 0.564843px; fill: rgb(255, 255, 255); stroke: rgb(255, 255, 255);"/>
    <path d="M 60.467 33.286 C 60.667 33.286 60.867 33.186 60.967 33.086 L 62.767 31.286 C 63.067 30.986 63.067 30.486 62.767 30.286 C 62.467 29.986 61.967 29.986 61.767 30.286 L 59.967 31.986 C 59.667 32.286 59.667 32.786 59.967 32.986 C 60.067 33.186 60.267 33.286 60.467 33.286 Z" style="stroke-width: 0.564843px; fill: rgb(255, 255, 255); stroke: rgb(255, 255, 255);"/>
    <path d="M 66.267 27.486 C 66.467 27.486 66.667 27.386 66.767 27.286 L 68.567 25.486 C 68.867 25.186 68.867 24.686 68.567 24.486 C 68.267 24.286 67.767 24.186 67.567 24.486 L 65.767 26.286 C 65.467 26.586 65.467 27.086 65.767 27.286 C 65.867 27.386 66.067 27.486 66.267 27.486 Z" style="stroke-width: 0.564843px; fill: rgb(255, 255, 255); stroke: rgb(255, 255, 255);"/>
  </g>
  <g transform="matrix(1, 0, 0, 1, -3.770447, 0.000099)">
    <circle cx="8.439" cy="23.002" r="1.015" style="fill: rgb(255, 255, 255);"/>
    <circle cx="8.439" cy="3.724" r="1.015" style="fill: rgb(255, 255, 255);"/>
    <path d="M 9.453 7.782 C 9.453 7.222 8.999 6.768 8.439 6.768 C 7.879 6.768 7.424 7.222 7.424 7.782 L 7.424 18.943 C 7.424 19.504 7.879 19.958 8.439 19.958 C 8.999 19.958 9.453 19.504 9.453 18.943 L 9.453 7.782 Z" style="fill: rgb(255, 255, 255);"/>
  </g>
</svg>